<svg id="svg" version="1.1" width="400" height="358.041958041958" viewBox="0 0 400 358.041958041958" xmlns="http://www.w3.org/2000/svg" xmlns:xlink="http://www.w3.org/1999/xlink"><g id="svgg"><path id="path0" d="M252.571 84.138 C 250.026 85.690,249.354 88.469,250.807 91.439 L 251.749 93.364 250.179 96.906 C 249.315 98.854,247.525 102.784,246.200 105.640 C 244.876 108.496,243.184 112.202,242.441 113.876 C 238.681 122.346,238.607 122.471,237.419 122.471 C 235.940 122.471,234.204 123.254,233.152 124.394 C 232.047 125.592,232.613 125.669,225.342 123.324 C 219.796 121.536,219.064 121.208,218.736 120.370 C 217.674 117.657,217.279 117.035,216.209 116.382 C 212.828 114.321,208.080 116.537,208.063 120.184 C 208.055 121.681,207.598 122.204,201.042 128.211 C 192.463 136.071,171.771 155.414,170.815 156.467 C 169.246 158.194,169.500 158.325,162.880 152.351 C 155.406 145.605,156.281 145.984,153.547 148.306 C 145.905 154.798,143.818 156.584,141.053 158.995 C 139.358 160.473,136.549 162.892,134.811 164.369 C 133.074 165.846,129.615 168.827,127.124 170.994 C 124.634 173.160,121.031 176.292,119.117 177.954 C 115.534 181.065,114.521 182.429,111.922 187.645 C 111.186 189.123,110.438 190.484,110.261 190.671 C 109.147 191.843,109.835 191.943,118.979 191.937 C 129.521 191.931,128.292 192.404,130.598 187.466 C 131.610 185.300,134.057 180.215,136.037 176.166 C 140.024 168.011,139.514 168.655,147.193 162.089 C 149.648 159.990,152.445 157.590,153.410 156.755 C 154.374 155.920,155.388 155.105,155.662 154.943 C 156.161 154.649,158.358 156.489,165.736 163.378 C 169.396 166.796,168.844 166.849,173.155 162.665 C 176.557 159.362,183.866 152.538,199.284 138.268 C 203.026 134.805,207.388 130.720,208.977 129.191 C 211.533 126.731,212.021 126.410,213.208 126.410 C 214.790 126.410,215.717 125.984,217.216 124.566 L 218.318 123.525 224.020 125.367 C 227.157 126.381,230.129 127.357,230.627 127.536 C 231.274 127.770,231.713 128.374,232.170 129.661 C 232.864 131.614,234.141 132.674,236.292 133.080 C 241.015 133.973,244.597 127.886,241.371 124.451 L 240.648 123.682 242.395 119.764 C 243.356 117.609,245.064 113.832,246.189 111.370 C 247.314 108.908,249.327 104.476,250.661 101.522 C 251.995 98.568,253.294 95.707,253.548 95.166 C 253.945 94.317,254.221 94.181,255.536 94.181 C 259.150 94.181,261.511 89.773,259.813 86.194 C 258.657 83.758,254.930 82.700,252.571 84.138 M235.461 95.651 C 221.368 97.373,208.800 104.872,204.189 114.310 C 202.815 117.122,201.309 122.288,201.738 122.717 C 202.289 123.268,204.132 121.056,204.836 118.998 C 207.654 110.771,217.350 109.585,221.096 117.010 C 221.829 118.461,221.688 118.480,224.113 116.600 C 227.536 113.944,232.231 112.093,237.374 111.372 C 238.825 111.169,240.130 110.929,240.274 110.840 C 240.608 110.634,247.090 96.519,247.090 95.999 C 247.090 95.787,246.551 95.613,245.892 95.613 C 245.233 95.613,243.259 95.543,241.505 95.457 C 239.752 95.372,237.032 95.459,235.461 95.651 M122.829 133.029 C 122.829 153.220,122.929 169.740,123.051 169.740 C 123.173 169.740,124.825 168.403,126.722 166.769 C 128.618 165.135,130.836 163.242,131.649 162.562 C 133.197 161.268,139.840 155.557,149.459 147.251 C 152.584 144.553,155.364 142.217,155.637 142.059 C 155.984 141.859,157.024 142.629,159.087 144.616 C 162.478 147.879,168.656 153.268,169.008 153.268 C 169.307 153.268,175.613 147.608,175.751 147.216 C 175.807 147.057,175.143 145.976,174.275 144.815 C 170.255 139.437,167.987 135.950,168.229 135.523 C 168.371 135.273,171.226 132.198,174.575 128.690 C 185.722 117.011,196.730 105.534,200.956 101.184 C 203.254 98.818,205.057 96.758,204.963 96.606 C 204.869 96.454,199.763 96.329,193.615 96.329 L 182.439 96.329 179.198 99.642 C 177.416 101.464,173.310 105.783,170.074 109.241 C 159.581 120.450,150.283 130.430,146.152 134.915 C 143.930 137.328,141.964 139.302,141.784 139.302 C 141.590 139.302,141.418 130.556,141.364 117.905 L 141.271 96.509 132.050 96.413 L 122.829 96.317 122.829 133.029 M255.761 98.209 C 254.593 100.549,250.317 110.333,250.119 111.123 C 249.908 111.964,250.018 112.075,251.444 112.454 C 258.178 114.242,262.391 116.551,267.410 121.203 C 270.531 124.096,269.542 124.455,276.086 118.059 C 282.506 111.786,282.476 112.737,276.411 107.784 C 270.193 102.707,266.594 100.654,260.004 98.425 C 256.367 97.196,256.271 97.191,255.761 98.209 M216.831 128.585 C 215.649 129.160,214.360 129.639,213.966 129.650 C 213.563 129.661,211.529 131.306,209.319 133.408 L 205.388 137.147 207.528 139.338 C 211.018 142.911,216.198 145.970,223.236 148.613 C 228.497 150.590,228.073 150.874,228.190 145.300 L 228.290 140.555 236.526 140.555 L 244.763 140.555 244.763 138.622 C 244.763 136.052,243.382 135.395,239.482 136.109 C 235.411 136.854,233.495 136.232,230.618 133.231 C 229.338 131.895,227.968 130.640,227.574 130.441 C 226.882 130.092,219.221 127.456,219.059 127.512 C 219.015 127.527,218.013 128.010,216.831 128.585 M248.165 150.414 C 248.165 169.429,248.244 173.016,248.666 173.178 C 249.674 173.565,256.105 171.066,258.639 169.303 L 259.624 168.617 259.624 148.230 L 259.624 127.842 253.894 127.842 L 248.165 127.842 248.165 150.414 M262.799 144.201 C 262.605 157.125,262.731 159.833,263.605 161.504 C 269.296 172.392,246.702 181.667,228.763 175.807 C 221.518 173.440,216.014 169.614,210.716 163.262 C 207.929 159.921,208.323 160.016,206.079 162.134 C 198.320 169.454,197.176 171.341,198.939 173.901 C 209.183 188.774,232.921 196.493,254.252 191.887 C 285.478 185.146,294.202 154.736,268.218 143.205 C 262.333 140.594,262.855 140.498,262.799 144.201 M231.325 146.553 C 231.286 158.996,231.378 172.769,231.502 172.893 C 231.841 173.232,236.389 173.996,239.481 174.234 L 242.793 174.488 242.793 159.044 L 242.793 143.599 237.064 143.599 L 231.334 143.599 231.325 146.553 M214.145 157.654 L 214.145 162.399 217.114 165.264 C 219.850 167.905,224.063 170.815,225.149 170.815 C 225.505 170.815,225.604 168.871,225.604 161.862 L 225.604 152.910 219.875 152.910 L 214.145 152.910 214.145 157.654 M178.820 161.851 L 174.828 165.766 174.589 167.843 C 173.948 173.404,174.846 176.319,178.866 181.737 C 180.474 183.903,182.730 186.965,183.881 188.541 C 185.031 190.116,186.147 191.524,186.361 191.669 C 187.093 192.163,207.341 191.996,207.339 191.495 C 207.337 191.249,204.610 187.261,201.278 182.632 C 197.946 178.004,192.589 170.553,189.373 166.075 C 186.158 161.597,183.366 157.934,183.169 157.935 C 182.972 157.936,181.015 159.698,178.820 161.851 M147.269 166.272 L 141.808 170.990 141.808 181.476 L 141.808 191.961 147.449 191.862 L 153.089 191.764 153.182 176.634 C 153.233 168.312,153.153 161.515,153.003 161.529 C 152.853 161.543,150.273 163.677,147.269 166.272 M158.639 176.899 L 158.639 191.961 164.279 191.862 L 169.919 191.764 170.014 181.673 L 170.110 171.583 165.278 167.418 C 162.621 165.128,160.353 163.103,160.239 162.918 C 158.705 160.436,158.639 161.015,158.639 176.899 M227.202 212.741 C 220.824 213.810,217.207 217.498,217.195 222.947 C 217.184 228.089,219.729 230.747,226.200 232.352 C 235.499 234.659,236.491 235.168,236.491 237.637 C 236.491 241.419,228.231 242.124,221.933 238.881 L 219.156 237.451 218.639 238.242 C 218.354 238.677,217.699 239.991,217.182 241.161 L 216.242 243.288 217.074 243.925 C 224.220 249.396,239.044 248.300,243.017 242.006 C 247.003 235.692,243.709 229.757,234.915 227.411 C 224.968 224.758,223.933 224.126,225.079 221.401 C 226.299 218.498,232.903 217.933,237.871 220.306 L 240.649 221.632 241.214 220.306 C 243.442 215.074,243.488 215.444,240.454 214.135 C 236.839 212.576,231.521 212.017,227.202 212.741 M315.846 212.741 C 301.726 215.442,296.666 233.387,307.322 242.968 C 313.026 248.096,322.590 248.933,330.433 244.990 C 333.916 243.239,333.641 243.982,333.723 236.091 L 333.791 229.567 332.964 229.360 C 332.509 229.245,330.849 229.200,329.274 229.258 L 326.410 229.364 326.322 233.662 C 326.193 240.004,325.642 240.645,320.322 240.645 C 309.183 240.645,305.445 225.289,315.353 220.229 C 319.103 218.314,323.906 218.961,327.876 221.915 C 329.381 223.035,329.349 223.046,331.954 220.418 L 334.255 218.097 333.238 217.035 C 329.856 213.505,321.996 211.565,315.846 212.741 M22.195 213.011 C 21.628 213.204,21.725 246.726,22.292 246.755 C 23.416 246.813,29.539 246.677,29.624 246.592 C 29.676 246.540,29.793 244.597,29.885 242.273 L 30.052 238.049 31.946 235.985 C 34.252 233.474,34.273 233.470,35.738 235.363 C 36.386 236.200,37.916 238.186,39.138 239.777 C 40.361 241.368,42.095 243.624,42.992 244.790 L 44.623 246.911 52.454 246.831 C 56.761 246.787,60.399 246.626,60.537 246.473 C 60.676 246.320,61.134 245.255,61.555 244.107 C 61.977 242.958,62.565 241.548,62.862 240.974 L 63.402 239.928 71.217 239.928 L 79.032 239.928 79.678 241.450 C 80.034 242.287,80.694 243.818,81.145 244.852 L 81.966 246.732 86.128 246.732 C 90.961 246.732,90.741 247.161,88.426 242.257 C 87.682 240.681,86.642 238.344,86.115 237.064 C 85.110 234.625,84.845 234.033,81.381 226.500 C 80.204 223.939,78.396 219.957,77.363 217.649 C 75.079 212.548,75.499 212.841,70.803 213.065 L 66.943 213.250 64.966 217.905 C 63.879 220.466,62.503 223.599,61.908 224.867 C 61.313 226.136,59.208 230.971,57.230 235.611 C 52.586 246.502,53.484 246.044,48.866 239.878 C 46.748 237.050,44.433 234.011,43.721 233.124 C 43.010 232.238,41.891 230.741,41.235 229.798 C 39.763 227.680,39.304 228.452,47.128 219.875 L 53.171 213.250 48.698 213.146 L 44.226 213.042 42.635 214.757 C 41.760 215.701,39.826 217.776,38.337 219.369 C 36.849 220.961,34.533 223.500,33.191 225.009 C 29.599 229.049,29.621 229.076,29.732 220.859 C 29.783 217.068,29.802 213.775,29.774 213.542 C 29.726 213.149,23.142 212.688,22.195 213.011 M94.107 227.126 C 94.049 234.857,94.055 242.431,94.120 243.957 L 94.237 246.732 97.969 246.732 L 101.701 246.732 101.701 242.328 C 101.701 236.992,101.649 237.064,105.503 237.064 L 108.445 237.064 109.500 238.406 C 110.081 239.145,111.561 241.321,112.788 243.241 L 115.021 246.732 119.283 246.732 C 124.393 246.732,124.325 247.223,120.082 240.968 L 116.619 235.862 117.466 235.299 C 123.682 231.166,125.193 223.260,120.854 217.572 C 118.078 213.932,114.719 213.071,103.296 213.071 L 94.212 213.071 94.107 227.126 M139.750 213.518 C 139.555 213.765,139.192 214.611,138.944 215.398 C 138.696 216.186,138.271 217.234,138.000 217.726 C 137.329 218.944,133.404 227.699,132.124 230.830 C 131.553 232.227,129.792 236.241,128.211 239.748 C 126.630 243.256,125.336 246.262,125.336 246.429 C 125.336 246.596,127.103 246.732,129.262 246.732 C 133.763 246.732,133.357 247.024,134.995 242.614 L 135.926 240.107 143.931 240.107 C 150.676 240.107,151.983 240.192,152.233 240.645 C 152.395 240.940,152.995 242.390,153.565 243.868 L 154.601 246.553 158.797 246.654 C 162.936 246.754,162.989 246.745,162.750 245.992 C 162.510 245.236,161.237 242.322,157.209 233.303 C 156.065 230.743,154.090 226.312,152.819 223.456 C 151.548 220.600,149.979 217.095,149.333 215.667 L 148.158 213.071 144.132 213.071 C 141.339 213.071,139.997 213.208,139.750 213.518 M166.876 229.902 L 166.876 246.732 170.636 246.732 L 174.396 246.732 174.478 240.555 C 174.523 237.158,174.564 232.903,174.568 231.101 C 174.572 229.299,174.689 227.707,174.829 227.565 C 175.140 227.246,175.474 227.638,187.415 242.376 L 190.944 246.732 194.308 246.732 L 197.672 246.732 197.672 229.902 L 197.672 213.071 193.739 213.071 L 189.805 213.071 189.710 222.979 L 189.615 232.888 183.706 225.662 C 180.457 221.688,176.865 217.229,175.725 215.753 L 173.653 213.071 170.264 213.071 L 166.876 213.071 166.876 229.902 M249.902 213.686 C 249.823 214.037,249.762 221.576,249.767 230.439 L 249.776 246.553 253.715 246.553 L 257.654 246.553 257.654 229.902 L 257.654 213.250 253.850 213.149 C 250.444 213.058,250.030 213.114,249.902 213.686 M265.191 219.606 C 265.058 223.201,265.000 230.815,265.062 236.526 L 265.175 246.911 267.323 246.865 C 268.505 246.839,270.237 246.799,271.173 246.775 L 272.874 246.732 272.874 237.034 C 272.874 229.475,272.972 227.368,273.318 227.483 C 273.562 227.565,277.211 231.889,281.427 237.092 L 289.092 246.553 292.532 246.553 L 295.971 246.553 296.064 229.812 L 296.157 213.071 292.215 213.071 L 288.272 213.071 288.272 222.948 C 288.272 228.799,288.138 232.777,287.943 232.707 C 287.658 232.603,282.157 225.876,274.306 216.030 L 271.979 213.110 268.705 213.091 L 265.431 213.071 265.191 219.606 M340.377 213.518 C 340.292 213.765,340.257 221.298,340.299 230.260 L 340.376 246.553 344.226 246.655 L 348.075 246.757 348.075 239.940 L 348.075 233.124 355.774 233.124 L 363.474 233.124 363.474 239.928 L 363.474 246.732 367.413 246.732 L 371.352 246.732 371.352 229.902 L 371.352 213.071 367.413 213.071 L 363.474 213.071 363.432 217.816 C 363.409 220.425,363.369 223.286,363.342 224.172 L 363.295 225.783 356.132 225.964 C 352.193 226.063,348.769 226.086,348.523 226.015 C 348.186 225.918,348.075 224.297,348.075 219.478 L 348.075 213.071 344.304 213.071 C 341.608 213.071,340.488 213.198,340.377 213.518 M112.366 220.282 C 116.262 222.167,116.379 227.729,112.567 229.818 C 111.277 230.526,110.492 230.645,106.659 230.715 L 102.238 230.797 102.059 225.305 C 101.961 222.284,101.947 219.746,102.029 219.664 C 102.617 219.082,110.910 219.577,112.366 220.282 M72.786 224.888 C 74.738 229.457,76.276 233.182,76.276 233.341 C 76.276 233.419,74.020 233.483,71.262 233.483 C 65.725 233.483,65.892 233.577,66.949 231.042 C 67.333 230.119,68.236 227.833,68.955 225.962 C 71.123 220.318,70.865 220.390,72.786 224.888 M145.051 223.366 C 145.502 224.499,146.568 227.076,147.421 229.093 C 148.273 231.109,148.970 232.922,148.970 233.121 C 148.970 233.347,147.091 233.483,143.957 233.483 C 141.200 233.483,138.944 233.354,138.944 233.196 C 138.944 233.039,139.991 230.453,141.271 227.449 C 142.551 224.446,143.599 221.835,143.599 221.648 C 143.599 220.683,144.326 221.544,145.051 223.366 M105.722 266.697 L 105.819 274.127 109.532 274.230 C 118.237 274.470,122.514 269.807,119.338 263.538 C 117.642 260.192,115.517 259.271,109.482 259.268 L 105.626 259.266 105.722 266.697 M127.419 262.399 C 124.782 268.092,122.495 273.698,122.685 274.004 C 123.325 275.040,124.987 274.263,125.873 272.516 L 126.780 270.725 130.348 270.725 L 133.916 270.725 134.729 272.426 C 135.383 273.796,135.742 274.150,136.570 274.245 C 138.384 274.452,138.434 273.860,136.873 270.658 C 136.075 269.021,134.752 266.150,133.934 264.279 C 131.048 257.679,129.776 257.312,127.419 262.399 M139.443 259.773 C 138.910 261.160,139.418 261.590,141.714 261.700 L 143.940 261.806 144.038 267.967 L 144.136 274.127 145.510 274.127 L 146.885 274.127 146.943 268.039 L 147.001 261.952 149.440 261.845 L 151.878 261.739 151.767 260.592 L 151.656 259.445 145.650 259.347 C 140.640 259.265,139.611 259.336,139.443 259.773 M158.582 260.967 C 158.178 261.902,156.737 265.092,155.379 268.054 C 152.506 274.321,152.509 274.306,154.166 274.306 C 155.314 274.306,155.494 274.158,156.231 272.605 L 157.038 270.904 160.614 270.904 L 164.190 270.904 165.002 272.605 C 165.833 274.345,166.943 274.820,168.245 273.995 C 168.792 273.648,168.778 273.611,165.726 267.144 C 164.657 264.879,163.403 262.180,162.940 261.146 C 161.715 258.412,159.719 258.330,158.582 260.967 M184.520 259.714 C 183.741 260.714,178.324 273.404,178.491 273.838 C 178.990 275.139,180.886 274.348,181.660 272.516 L 182.416 270.725 186.095 270.725 L 189.774 270.725 190.544 272.516 C 191.279 274.224,191.378 274.306,192.703 274.306 C 194.389 274.306,194.389 274.307,192.874 271.031 C 192.205 269.583,190.815 266.544,189.786 264.279 C 187.528 259.307,187.497 259.266,186.034 259.266 C 185.393 259.266,184.712 259.467,184.520 259.714 M197.672 266.785 L 197.672 274.349 199.015 274.238 L 200.358 274.127 200.458 269.561 C 200.566 264.647,200.703 264.353,202.011 266.206 C 205.609 271.304,208.488 274.346,209.611 274.237 L 210.743 274.127 210.743 266.786 L 210.743 259.445 209.400 259.334 L 208.057 259.223 208.057 263.900 C 208.057 269.733,208.129 269.732,203.556 263.980 C 200.447 260.070,199.793 259.429,198.811 259.333 L 197.672 259.221 197.672 266.785 M218.994 263.295 C 216.552 268.400,214.145 273.758,214.145 274.091 C 214.145 274.232,214.813 274.298,215.630 274.237 C 217.133 274.126,217.273 274.000,218.160 271.979 L 218.631 270.904 222.207 270.904 L 225.783 270.904 226.627 272.605 C 227.556 274.478,230.650 275.385,230.090 273.620 C 229.548 271.911,223.757 259.810,223.362 259.558 C 221.706 258.506,220.994 259.115,218.994 263.295 M233.923 266.697 L 234.020 274.127 239.079 274.226 L 244.138 274.325 244.328 273.333 C 244.612 271.849,244.487 271.799,240.444 271.799 L 236.705 271.799 236.677 270.457 C 236.662 269.718,236.672 267.180,236.701 264.816 C 236.763 259.618,236.659 259.266,235.048 259.266 L 233.826 259.266 233.923 266.697 M244.942 259.448 C 244.942 259.571,246.109 261.555,247.536 263.856 C 250.128 268.035,250.131 268.043,250.312 271.083 L 250.492 274.127 251.925 274.127 L 253.357 274.127 253.462 271.314 C 253.565 268.573,253.620 268.419,255.648 265.227 C 257.710 261.982,259.018 259.660,258.827 259.585 C 256.892 258.815,255.920 259.698,252.967 264.906 C 252.030 266.559,251.428 265.970,248.485 260.519 C 247.953 259.532,244.942 258.623,244.942 259.448 M264.726 259.519 C 263.110 259.830,261.415 261.883,261.415 263.528 C 261.415 265.910,262.123 266.609,265.648 267.707 C 269.426 268.884,270.319 269.581,269.723 270.889 C 269.221 271.991,265.280 272.224,263.433 271.260 C 262.095 270.562,262.024 270.576,261.546 271.606 C 260.089 274.747,269.947 275.518,271.951 272.419 C 274.034 269.198,272.592 267.056,267.323 265.544 C 264.747 264.805,264.279 264.464,264.279 263.322 C 264.279 261.703,267.136 260.997,269.818 261.952 C 271.378 262.508,271.784 262.272,271.794 260.805 C 271.803 259.562,268.049 258.879,264.726 259.519 M275.619 259.505 C 274.429 260.695,275.417 261.773,277.700 261.773 L 280.019 261.773 280.117 267.950 L 280.215 274.127 281.549 274.238 L 282.884 274.348 282.982 268.150 L 283.080 261.952 285.497 261.846 L 287.914 261.740 287.914 260.503 L 287.914 259.266 281.886 259.266 C 278.571 259.266,275.751 259.373,275.619 259.505 M114.336 262.260 C 116.210 263.054,116.859 264.060,117.031 266.439 C 117.299 270.140,115.466 271.796,111.101 271.798 L 108.505 271.799 108.505 266.786 L 108.505 261.773 110.844 261.773 C 112.131 261.773,113.702 261.992,114.336 262.260 M131.579 265.264 C 132.128 266.594,132.657 267.883,132.755 268.129 C 132.887 268.462,132.279 268.577,130.387 268.577 C 128.988 268.577,127.842 268.516,127.842 268.443 C 127.842 268.223,128.806 265.634,129.425 264.190 C 130.208 262.363,130.425 262.471,131.579 265.264 M162.010 265.272 C 163.293 268.630,163.316 268.577,160.609 268.577 C 157.991 268.577,158.007 268.601,159.017 266.205 C 159.422 265.244,159.902 264.096,160.084 263.653 C 160.617 262.353,161.026 262.697,162.010 265.272 M187.410 265.273 C 188.727 268.629,188.749 268.577,185.995 268.577 C 183.263 268.577,183.271 268.605,184.977 264.879 C 186.151 262.315,186.256 262.332,187.410 265.273 M223.408 265.357 C 224.877 268.643,224.902 268.577,222.202 268.577 C 219.504 268.577,219.534 268.647,220.837 265.310 C 222.022 262.276,222.030 262.276,223.408 265.357 M49.060 266.434 C 49.060 267.135,49.364 267.144,72.542 267.144 C 94.713 267.144,96.017 267.109,95.903 266.517 C 95.702 265.471,49.060 265.388,49.060 266.434 M297.354 266.249 C 296.923 267.372,297.876 267.412,320.764 267.241 C 345.252 267.058,344.331 267.095,344.029 266.308 C 343.738 265.549,297.645 265.491,297.354 266.249 " stroke="none" fill="#fafaf7" fill-rule="evenodd"></path><path id="path1" d="M0.000 179.051 L 0.000 358.102 200.000 358.102 L 400.000 358.102 400.000 179.051 L 400.000 0.000 200.000 0.000 L 0.000 0.000 0.000 179.051 M257.861 84.213 C 262.235 86.671,260.483 94.181,255.536 94.181 C 254.221 94.181,253.945 94.317,253.548 95.166 C 253.294 95.707,251.995 98.568,250.661 101.522 C 249.327 104.476,247.314 108.908,246.189 111.370 C 245.064 113.832,243.356 117.609,242.395 119.764 L 240.648 123.682 241.371 124.451 C 244.597 127.886,241.015 133.973,236.292 133.080 C 234.141 132.674,232.864 131.614,232.170 129.661 C 231.713 128.374,231.274 127.770,230.627 127.536 C 230.129 127.357,227.157 126.381,224.020 125.367 L 218.318 123.525 217.216 124.566 C 215.717 125.984,214.790 126.410,213.208 126.410 C 212.021 126.410,211.533 126.731,208.977 129.191 C 207.388 130.720,203.026 134.805,199.284 138.268 C 183.866 152.538,176.557 159.362,173.155 162.665 C 168.844 166.849,169.396 166.796,165.736 163.378 C 158.358 156.489,156.161 154.649,155.662 154.943 C 155.388 155.105,154.374 155.920,153.410 156.755 C 152.445 157.590,149.648 159.990,147.193 162.089 C 139.514 168.655,140.024 168.011,136.037 176.166 C 134.057 180.215,131.610 185.300,130.598 187.466 C 128.292 192.404,129.521 191.931,118.979 191.937 C 109.835 191.943,109.147 191.843,110.261 190.671 C 110.438 190.484,111.186 189.123,111.922 187.645 C 114.521 182.429,115.534 181.065,119.117 177.954 C 121.031 176.292,124.634 173.160,127.124 170.994 C 129.615 168.827,133.074 165.846,134.811 164.369 C 136.549 162.892,139.358 160.473,141.053 158.995 C 143.818 156.584,145.905 154.798,153.547 148.306 C 156.281 145.984,155.406 145.605,162.880 152.351 C 169.500 158.325,169.246 158.194,170.815 156.467 C 171.771 155.414,192.463 136.071,201.042 128.211 C 207.598 122.204,208.055 121.681,208.063 120.184 C 208.080 116.537,212.828 114.321,216.209 116.382 C 217.279 117.035,217.674 117.657,218.736 120.370 C 219.064 121.208,219.796 121.536,225.342 123.324 C 232.613 125.669,232.047 125.592,233.152 124.394 C 234.204 123.254,235.940 122.471,237.419 122.471 C 238.607 122.471,238.681 122.346,242.441 113.876 C 243.184 112.202,244.876 108.496,246.200 105.640 C 247.525 102.784,249.315 98.854,250.179 96.906 L 251.749 93.364 250.807 91.439 C 248.293 86.300,252.998 81.479,257.861 84.213 M245.892 95.613 C 246.551 95.613,247.090 95.787,247.090 95.999 C 247.090 96.519,240.608 110.634,240.274 110.840 C 240.130 110.929,238.825 111.169,237.374 111.372 C 232.231 112.093,227.536 113.944,224.113 116.600 C 221.688 118.480,221.829 118.461,221.096 117.010 C 217.350 109.585,207.654 110.771,204.836 118.998 C 204.132 121.056,202.289 123.268,201.738 122.717 C 201.309 122.288,202.815 117.122,204.189 114.310 C 209.575 103.287,226.521 94.725,241.505 95.457 C 243.259 95.543,245.233 95.613,245.892 95.613 M141.364 117.905 C 141.418 130.556,141.590 139.302,141.784 139.302 C 141.964 139.302,143.930 137.328,146.152 134.915 C 150.283 130.430,159.581 120.450,170.074 109.241 C 173.310 105.783,177.416 101.464,179.198 99.642 L 182.439 96.329 193.615 96.329 C 199.763 96.329,204.869 96.454,204.963 96.606 C 205.057 96.758,203.254 98.818,200.956 101.184 C 196.730 105.534,185.722 117.011,174.575 128.690 C 171.226 132.198,168.371 135.273,168.229 135.523 C 167.987 135.950,170.255 139.437,174.275 144.815 C 175.143 145.976,175.807 147.057,175.751 147.216 C 175.613 147.608,169.307 153.268,169.008 153.268 C 168.656 153.268,162.478 147.879,159.087 144.616 C 157.024 142.629,155.984 141.859,155.637 142.059 C 155.364 142.217,152.584 144.553,149.459 147.251 C 139.840 155.557,133.197 161.268,131.649 162.562 C 130.836 163.242,128.618 165.135,126.722 166.769 C 124.825 168.403,123.173 169.740,123.051 169.740 C 122.929 169.740,122.829 153.220,122.829 133.029 L 122.829 96.317 132.050 96.413 L 141.271 96.509 141.364 117.905 M260.004 98.425 C 266.594 100.654,270.193 102.707,276.411 107.784 C 282.476 112.737,282.506 111.786,276.086 118.059 C 269.542 124.455,270.531 124.096,267.410 121.203 C 262.391 116.551,258.178 114.242,251.444 112.454 C 250.018 112.075,249.908 111.964,250.119 111.123 C 250.317 110.333,254.593 100.549,255.761 98.209 C 256.271 97.191,256.367 97.196,260.004 98.425 M222.998 128.782 C 228.023 130.471,227.908 130.404,230.618 133.231 C 233.495 136.232,235.411 136.854,239.482 136.109 C 243.382 135.395,244.763 136.052,244.763 138.622 L 244.763 140.555 236.526 140.555 L 228.290 140.555 228.190 145.300 C 228.073 150.874,228.497 150.590,223.236 148.613 C 216.198 145.970,211.018 142.911,207.528 139.338 L 205.388 137.147 209.319 133.408 C 211.529 131.306,213.563 129.661,213.966 129.650 C 214.360 129.639,215.649 129.160,216.831 128.585 C 218.013 128.010,219.015 127.527,219.059 127.512 C 219.103 127.497,220.876 128.068,222.998 128.782 M259.624 148.230 L 259.624 168.617 258.639 169.303 C 256.105 171.066,249.674 173.565,248.666 173.178 C 248.244 173.016,248.165 169.429,248.165 150.414 L 248.165 127.842 253.894 127.842 L 259.624 127.842 259.624 148.230 M268.218 143.205 C 294.202 154.736,285.478 185.146,254.252 191.887 C 232.921 196.493,209.183 188.774,198.939 173.901 C 197.176 171.341,198.320 169.454,206.079 162.134 C 208.323 160.016,207.929 159.921,210.716 163.262 C 216.014 169.614,221.518 173.440,228.763 175.807 C 246.702 181.667,269.296 172.392,263.605 161.504 C 262.731 159.833,262.605 157.125,262.799 144.201 C 262.855 140.498,262.333 140.594,268.218 143.205 M242.793 159.044 L 242.793 174.488 239.481 174.234 C 236.389 173.996,231.841 173.232,231.502 172.893 C 231.378 172.769,231.286 158.996,231.325 146.553 L 231.334 143.599 237.064 143.599 L 242.793 143.599 242.793 159.044 M225.604 161.862 C 225.604 168.871,225.505 170.815,225.149 170.815 C 224.063 170.815,219.850 167.905,217.114 165.264 L 214.145 162.399 214.145 157.654 L 214.145 152.910 219.875 152.910 L 225.604 152.910 225.604 161.862 M189.373 166.075 C 192.589 170.553,197.946 178.004,201.278 182.632 C 204.610 187.261,207.337 191.249,207.339 191.495 C 207.341 191.996,187.093 192.163,186.361 191.669 C 186.147 191.524,185.031 190.116,183.881 188.541 C 182.730 186.965,180.474 183.903,178.866 181.737 C 174.846 176.319,173.948 173.404,174.589 167.843 L 174.828 165.766 178.820 161.851 C 181.015 159.698,182.972 157.936,183.169 157.935 C 183.366 157.934,186.158 161.597,189.373 166.075 M153.182 176.634 L 153.089 191.764 147.449 191.862 L 141.808 191.961 141.808 181.476 L 141.808 170.990 147.269 166.272 C 150.273 163.677,152.853 161.543,153.003 161.529 C 153.153 161.515,153.233 168.312,153.182 176.634 M160.239 162.918 C 160.353 163.103,162.621 165.128,165.278 167.418 L 170.110 171.583 170.014 181.673 L 169.919 191.764 164.279 191.862 L 158.639 191.961 158.639 176.899 C 158.639 161.015,158.705 160.436,160.239 162.918 M236.047 212.861 C 238.576 213.349,241.751 214.503,242.675 215.270 C 243.123 215.641,242.956 216.214,241.214 220.306 L 240.649 221.632 237.871 220.306 C 232.903 217.933,226.299 218.498,225.079 221.401 C 223.933 224.126,224.968 224.758,234.915 227.411 C 243.709 229.757,247.003 235.692,243.017 242.006 C 239.044 248.300,224.220 249.396,217.074 243.925 L 216.242 243.288 217.182 241.161 C 217.699 239.991,218.354 238.677,218.639 238.242 L 219.156 237.451 221.933 238.881 C 228.231 242.124,236.491 241.419,236.491 237.637 C 236.491 235.168,235.499 234.659,226.200 232.352 C 219.729 230.747,217.184 228.089,217.195 222.947 C 217.212 215.164,225.368 210.801,236.047 212.861 M325.120 212.905 C 327.870 213.553,331.834 215.570,333.238 217.035 L 334.255 218.097 331.954 220.418 C 329.349 223.046,329.381 223.035,327.876 221.915 C 323.906 218.961,319.103 218.314,315.353 220.229 C 305.445 225.289,309.183 240.645,320.322 240.645 C 325.642 240.645,326.193 240.004,326.322 233.662 L 326.410 229.364 329.274 229.258 C 330.849 229.200,332.509 229.245,332.964 229.360 L 333.791 229.567 333.723 236.091 C 333.641 243.982,333.916 243.239,330.433 244.990 C 318.593 250.943,305.068 245.918,302.179 234.492 C 298.760 220.970,310.894 209.552,325.120 212.905 M29.774 213.542 C 29.802 213.775,29.783 217.068,29.732 220.859 C 29.621 229.076,29.599 229.049,33.191 225.009 C 34.533 223.500,36.849 220.961,38.337 219.369 C 39.826 217.776,41.760 215.701,42.635 214.757 L 44.226 213.042 48.698 213.146 L 53.171 213.250 47.128 219.875 C 39.304 228.452,39.763 227.680,41.235 229.798 C 41.891 230.741,43.010 232.238,43.721 233.124 C 44.433 234.011,46.748 237.050,48.866 239.878 C 53.484 246.044,52.586 246.502,57.230 235.611 C 59.208 230.971,61.313 226.136,61.908 224.867 C 62.503 223.599,63.879 220.466,64.966 217.905 L 66.943 213.250 70.803 213.065 C 75.499 212.841,75.079 212.548,77.363 217.649 C 78.396 219.957,80.204 223.939,81.381 226.500 C 84.845 234.033,85.110 234.625,86.115 237.064 C 86.642 238.344,87.682 240.681,88.426 242.257 C 90.741 247.161,90.961 246.732,86.128 246.732 L 81.966 246.732 81.145 244.852 C 80.694 243.818,80.034 242.287,79.678 241.450 L 79.032 239.928 71.217 239.928 L 63.402 239.928 62.862 240.974 C 62.565 241.548,61.977 242.958,61.555 244.107 C 61.134 245.255,60.676 246.320,60.537 246.473 C 60.399 246.626,56.761 246.787,52.454 246.831 L 44.623 246.911 42.992 244.790 C 42.095 243.624,40.361 241.368,39.138 239.777 C 33.706 232.707,34.548 233.151,31.946 235.985 L 30.052 238.049 29.885 242.273 C 29.793 244.597,29.676 246.540,29.624 246.592 C 29.539 246.677,23.416 246.813,22.292 246.755 C 21.725 246.726,21.628 213.204,22.195 213.011 C 23.142 212.688,29.726 213.149,29.774 213.542 M114.548 213.745 C 124.937 216.979,126.596 229.228,117.466 235.299 L 116.619 235.862 120.082 240.968 C 124.325 247.223,124.393 246.732,119.283 246.732 L 115.021 246.732 112.788 243.241 C 111.561 241.321,110.081 239.145,109.500 238.406 L 108.445 237.064 105.503 237.064 C 101.649 237.064,101.701 236.992,101.701 242.328 L 101.701 246.732 97.969 246.732 L 94.237 246.732 94.120 243.957 C 94.055 242.431,94.049 234.857,94.107 227.126 L 94.212 213.071 103.296 213.071 C 111.188 213.071,112.665 213.159,114.548 213.745 M149.333 215.667 C 149.979 217.095,151.548 220.600,152.819 223.456 C 154.090 226.312,156.065 230.743,157.209 233.303 C 161.237 242.322,162.510 245.236,162.750 245.992 C 162.989 246.745,162.936 246.754,158.797 246.654 L 154.601 246.553 153.565 243.868 C 152.995 242.390,152.395 240.940,152.233 240.645 C 151.983 240.192,150.676 240.107,143.931 240.107 L 135.926 240.107 134.995 242.614 C 133.357 247.024,133.763 246.732,129.262 246.732 C 127.103 246.732,125.336 246.596,125.336 246.429 C 125.336 246.262,126.630 243.256,128.211 239.748 C 129.792 236.241,131.553 232.227,132.124 230.830 C 133.404 227.699,137.329 218.944,138.000 217.726 C 138.271 217.234,138.696 216.186,138.944 215.398 C 139.672 213.086,139.706 213.071,144.132 213.071 L 148.158 213.071 149.333 215.667 M175.725 215.753 C 176.865 217.229,180.457 221.688,183.706 225.662 L 189.615 232.888 189.710 222.979 L 189.805 213.071 193.739 213.071 L 197.672 213.071 197.672 229.902 L 197.672 246.732 194.308 246.732 L 190.944 246.732 187.415 242.376 C 175.474 227.638,175.140 227.246,174.829 227.565 C 174.689 227.707,174.572 229.299,174.568 231.101 C 174.564 232.903,174.523 237.158,174.478 240.555 L 174.396 246.732 170.636 246.732 L 166.876 246.732 166.876 229.902 L 166.876 213.071 170.264 213.071 L 173.653 213.071 175.725 215.753 M257.654 229.902 L 257.654 246.553 253.715 246.553 L 249.776 246.553 249.767 230.439 C 249.762 221.576,249.823 214.037,249.902 213.686 C 250.030 213.114,250.444 213.058,253.850 213.149 L 257.654 213.250 257.654 229.902 M274.306 216.030 C 282.157 225.876,287.658 232.603,287.943 232.707 C 288.138 232.777,288.272 228.799,288.272 222.948 L 288.272 213.071 292.215 213.071 L 296.157 213.071 296.064 229.812 L 295.971 246.553 292.532 246.553 L 289.092 246.553 281.427 237.092 C 277.211 231.889,273.562 227.565,273.318 227.483 C 272.972 227.368,272.874 229.475,272.874 237.034 L 272.874 246.732 271.173 246.775 C 270.237 246.799,268.505 246.839,267.323 246.865 L 265.175 246.911 265.062 236.526 C 265.000 230.815,265.058 223.201,265.191 219.606 L 265.431 213.071 268.705 213.091 L 271.979 213.110 274.306 216.030 M348.075 219.478 C 348.075 224.297,348.186 225.918,348.523 226.015 C 348.769 226.086,352.193 226.063,356.132 225.964 L 363.295 225.783 363.342 224.172 C 363.369 223.286,363.409 220.425,363.432 217.816 L 363.474 213.071 367.413 213.071 L 371.352 213.071 371.352 229.902 L 371.352 246.732 367.413 246.732 L 363.474 246.732 363.474 239.928 L 363.474 233.124 355.774 233.124 L 348.075 233.124 348.075 239.940 L 348.075 246.757 344.226 246.655 L 340.376 246.553 340.299 230.260 C 340.257 221.298,340.292 213.765,340.377 213.518 C 340.488 213.198,341.608 213.071,344.304 213.071 L 348.075 213.071 348.075 219.478 M102.029 219.664 C 101.947 219.746,101.961 222.284,102.059 225.305 L 102.238 230.797 106.659 230.715 C 113.103 230.597,115.309 229.110,115.307 224.888 C 115.305 220.994,112.877 219.517,106.482 219.517 C 104.115 219.517,102.111 219.583,102.029 219.664 M70.616 221.895 C 70.421 222.261,69.673 224.091,68.955 225.962 C 68.236 227.833,67.333 230.119,66.949 231.042 C 65.892 233.577,65.725 233.483,71.262 233.483 C 74.020 233.483,76.276 233.419,76.276 233.341 C 76.276 232.960,71.560 221.933,71.228 221.537 C 71.087 221.368,70.811 221.529,70.616 221.895 M143.599 221.648 C 143.599 221.835,142.551 224.446,141.271 227.449 C 139.991 230.453,138.944 233.039,138.944 233.196 C 138.944 233.354,141.200 233.483,143.957 233.483 C 147.091 233.483,148.970 233.347,148.970 233.121 C 148.970 232.922,148.273 231.109,147.421 229.093 C 146.568 227.076,145.502 224.499,145.051 223.366 C 144.326 221.544,143.599 220.683,143.599 221.648 M114.635 259.630 C 118.825 260.794,121.404 265.653,119.830 269.420 C 118.281 273.127,115.564 274.396,109.532 274.230 L 105.819 274.127 105.722 266.697 L 105.626 259.266 109.482 259.268 C 111.604 259.269,113.922 259.432,114.635 259.630 M131.927 260.072 C 132.213 260.515,133.116 262.408,133.934 264.279 C 134.752 266.150,136.075 269.021,136.873 270.658 C 138.434 273.860,138.384 274.452,136.570 274.245 C 135.742 274.150,135.383 273.796,134.729 272.426 L 133.916 270.725 130.348 270.725 L 126.780 270.725 125.873 272.516 C 124.987 274.263,123.325 275.040,122.685 274.004 C 122.495 273.698,124.782 268.092,127.419 262.399 C 129.036 258.908,130.641 258.079,131.927 260.072 M151.767 260.592 L 151.878 261.739 149.440 261.845 L 147.001 261.952 146.943 268.039 L 146.885 274.127 145.510 274.127 L 144.136 274.127 144.038 267.967 L 143.940 261.806 141.714 261.700 C 139.901 261.613,139.465 261.474,139.365 260.946 C 139.051 259.302,139.286 259.243,145.650 259.347 L 151.656 259.445 151.767 260.592 M162.940 261.146 C 163.403 262.180,164.657 264.879,165.726 267.144 C 168.778 273.611,168.792 273.648,168.245 273.995 C 166.943 274.820,165.833 274.345,165.002 272.605 L 164.190 270.904 160.614 270.904 L 157.038 270.904 156.231 272.605 C 155.494 274.158,155.314 274.306,154.166 274.306 C 152.509 274.306,152.506 274.321,155.379 268.054 C 156.737 265.092,158.178 261.902,158.582 260.967 C 159.719 258.330,161.715 258.412,162.940 261.146 M187.558 259.714 C 187.755 259.960,188.758 262.014,189.786 264.279 C 190.815 266.544,192.205 269.583,192.874 271.031 C 194.389 274.307,194.389 274.306,192.703 274.306 C 191.378 274.306,191.279 274.224,190.544 272.516 L 189.774 270.725 186.095 270.725 L 182.416 270.725 181.660 272.516 C 180.982 274.120,180.787 274.306,179.787 274.306 C 178.029 274.306,178.132 273.773,181.241 266.766 C 184.661 259.059,184.528 259.266,186.034 259.266 C 186.675 259.266,187.361 259.467,187.558 259.714 M203.556 263.980 C 208.129 269.732,208.057 269.733,208.057 263.900 L 208.057 259.223 209.400 259.334 L 210.743 259.445 210.743 266.786 L 210.743 274.127 209.611 274.237 C 208.488 274.346,205.609 271.304,202.011 266.206 C 200.703 264.353,200.566 264.647,200.458 269.561 L 200.358 274.127 199.015 274.238 L 197.672 274.349 197.672 266.785 L 197.672 259.221 198.811 259.333 C 199.793 259.429,200.447 260.070,203.556 263.980 M223.362 259.558 C 223.757 259.810,229.548 271.911,230.090 273.620 C 230.650 275.385,227.556 274.478,226.627 272.605 L 225.783 270.904 222.207 270.904 L 218.631 270.904 218.160 271.979 C 217.273 274.000,217.133 274.126,215.630 274.237 C 213.821 274.371,213.823 274.553,215.606 270.579 C 220.718 259.186,221.354 258.283,223.362 259.558 M236.512 259.893 C 236.644 260.237,236.729 262.453,236.701 264.816 C 236.672 267.180,236.662 269.718,236.677 270.457 L 236.705 271.799 240.444 271.799 C 244.487 271.799,244.612 271.849,244.328 273.333 L 244.138 274.325 239.079 274.226 L 234.020 274.127 233.923 266.697 L 233.826 259.266 235.048 259.266 C 235.882 259.266,236.347 259.465,236.512 259.893 M248.485 260.519 C 251.428 265.970,252.030 266.559,252.967 264.906 C 255.920 259.698,256.892 258.815,258.827 259.585 C 259.018 259.660,257.710 261.982,255.648 265.227 C 253.620 268.419,253.565 268.573,253.462 271.314 L 253.357 274.127 251.925 274.127 L 250.492 274.127 250.312 271.083 C 250.131 268.043,250.128 268.035,247.536 263.856 C 244.485 258.935,244.549 259.196,246.424 259.335 C 247.648 259.426,248.006 259.632,248.485 260.519 M270.457 259.643 C 271.492 259.930,271.798 260.196,271.794 260.805 C 271.784 262.272,271.378 262.508,269.818 261.952 C 267.136 260.997,264.279 261.703,264.279 263.322 C 264.279 264.464,264.747 264.805,267.323 265.544 C 272.592 267.056,274.034 269.198,271.951 272.419 C 269.947 275.518,260.089 274.747,261.546 271.606 C 262.024 270.576,262.095 270.562,263.433 271.260 C 265.280 272.224,269.221 271.991,269.723 270.889 C 270.319 269.581,269.426 268.884,265.648 267.707 C 262.123 266.609,261.415 265.910,261.415 263.528 C 261.415 261.883,263.110 259.830,264.726 259.519 C 266.306 259.214,269.135 259.276,270.457 259.643 M287.914 260.503 L 287.914 261.740 285.497 261.846 L 283.080 261.952 282.982 268.150 L 282.884 274.348 281.549 274.238 L 280.215 274.127 280.117 267.950 L 280.019 261.773 277.700 261.773 C 275.392 261.773,275.380 261.768,275.380 260.758 C 275.380 259.261,275.360 259.266,281.886 259.266 L 287.914 259.266 287.914 260.503 M108.505 266.786 L 108.505 271.799 111.101 271.798 C 115.466 271.796,117.299 270.140,117.031 266.439 C 116.786 263.052,115.090 261.773,110.844 261.773 L 108.505 261.773 108.505 266.786 M129.425 264.190 C 128.806 265.634,127.842 268.223,127.842 268.443 C 127.842 268.516,128.988 268.577,130.387 268.577 C 132.279 268.577,132.887 268.462,132.755 268.129 C 130.457 262.336,130.299 262.150,129.425 264.190 M160.084 263.653 C 159.902 264.096,159.422 265.244,159.017 266.205 C 158.007 268.601,157.991 268.577,160.609 268.577 C 163.316 268.577,163.293 268.630,162.010 265.272 C 161.026 262.697,160.617 262.353,160.084 263.653 M184.977 264.879 C 183.271 268.605,183.263 268.577,185.995 268.577 C 188.749 268.577,188.727 268.629,187.410 265.273 C 186.256 262.332,186.151 262.315,184.977 264.879 M220.837 265.310 C 219.534 268.647,219.504 268.577,222.202 268.577 C 224.902 268.577,224.877 268.643,223.408 265.357 C 222.030 262.276,222.022 262.276,220.837 265.310 M95.903 266.517 C 96.017 267.109,94.713 267.144,72.542 267.144 C 49.364 267.144,49.060 267.135,49.060 266.434 C 49.060 265.388,95.702 265.471,95.903 266.517 M344.029 266.308 C 344.331 267.095,345.252 267.058,320.764 267.241 C 297.876 267.412,296.923 267.372,297.354 266.249 C 297.645 265.491,343.738 265.549,344.029 266.308 " stroke="none" fill="#aca488" fill-rule="evenodd"></path></g></svg>